# xmcd
#
# Track frame offsets:
#	150
#	13950
#	31575
#	47625
#	67725
#	86175
#	105520
#	124345
#	140770
#	158320
#	174595
#	191899
#	208024
#	222724
#	239824
#
# Disc length: 3445
#
# Revision: 1
# Processed by: cddbd v1.5.1PL0 Copyright (c) Steve Scherf et al.
# Submitted via: dBpowerAMP V4.0
# Normalized: r0:DSETVAR2,TDELIM( - )
#
DISCID=dc0d730f
DTITLE=Various Artist - HIT LIST CD 12
DYEAR=1900
DGENRE=
TTITLE0=Alexia - Goodbye
TTITLE1=Andru Donalds - All out of Love
TTITLE2=Apollo 440 - Stop The Rock
TTITLE3=Basement Jaxx - Rendez Vu
TTITLE4=City To City - The Road A Head
TTITLE5=Destiny's Child - Bills Bills Bills
TTITLE6=Dull Doll - Mana Sala
TTITLE7=Enrique Iglesias - Bailamos
TTITLE8=Eurythmics - I Saved The World Today
TTITLE9=Gary Barlow - For All That You Want
TTITLE10=Madness - Lovestruck
TTITLE11=Melanie C - Goin' Down
TTITLE12=Pearl Jam - Last Kiss
TTITLE13=Scooter - Faster Harder Scooter
TTITLE14=Tlc - Unpretty
EXTD=
EXTT0=
EXTT1=
EXTT2=
EXTT3=
EXTT4=
EXTT5=
EXTT6=
EXTT7=
EXTT8=
EXTT9=
EXTT10=
EXTT11=
EXTT12=
EXTT13=
EXTT14=
PLAYORDER=
